<?xml version="1.0" encoding="UTF-8" standalone="no"?>
<!-- Generator: Adobe Illustrator 27.5.0, SVG Export Plug-In . SVG Version: 6.00 Build 0)  -->

<svg
   version="1.1"
   id="Calque_1"
   x="0px"
   y="0px"
   viewBox="0 0 40.000366 38.900002"
   xml:space="preserve"
   width="40.000366"
   height="38.900002"
   xmlns="http://www.w3.org/2000/svg"
   xmlns:svg="http://www.w3.org/2000/svg"><defs
   id="defs21" />
<style
   type="text/css"
   id="style2">
	.st0{fill:#FFFFFF;}
	.st1{fill:#3200E6;}
	.st2{fill:#E4E4E4;}
</style>
<g
   id="g16">
	<g
   id="g14">
		<path
   class="st0"
   d="m 24.2,17.6 c -1.7,-1.1 -9.7,-7.1 -9.7,-11.9 0,-3 2.1,-5.2 4.9,-5.2 1.8,0 3.1,0.7 4.4,2.4 L 24.3,3.5 24.7,3 C 26,1.4 27.2,0.7 29.1,0.7 32,0.7 34,2.9 34,5.9 33.9,10.5 25.9,16.4 24.2,17.6 Z"
   id="path4"
   clip-path="none" />
		<path
   class="st1"
   d="m 29,1.1 c 2.5,0 4.4,1.9 4.4,4.6 0,3.9 -6.1,9.1 -9.2,11.2 C 21.1,14.8 15,9.6 15,5.7 c 0,-2.6 1.8,-4.6 4.4,-4.6 1.6,0 2.7,0.7 3.9,2.1 l 0.9,1.3 0.9,-1.3 C 26.3,1.8 27.4,1.1 29,1.1 Z M 29,0 C 26.9,0 25.6,0.9 24.2,2.6 22.9,0.9 21.5,0 19.4,0 c -3,0 -5.5,2.3 -5.5,5.7 0,5.7 10.3,12.6 10.3,12.6 0,0 10.3,-6.9 10.3,-12.6 C 34.5,2.3 32,0 29,0 Z"
   id="path6"
   clip-path="none" />
		<path
   class="st1"
   d="m 37.1,27.4 c -0.6,-1.4 -1.8,-2.3 -3.3,-2.3 -0.2,0 -0.4,0 -0.6,0.1 -0.7,-0.7 -1.5,-1.1 -2.5,-1.1 -0.4,0 -0.7,0.1 -1.1,0.2 l -10.3,4.2 0.2,0.5 0.1,7.2 -0.2,0.1 0.4,0.9 2.9,-1.5 v 1.5 l -0.2,0.1 0.2,0.5 0.2,0.5 12.3,-6.2 C 36.8,31 37.7,29 37.1,27.4 Z"
   id="path8"
   clip-path="none" />
		<path
   class="st2"
   d="m 6.1,20.6 c 1,-0.4 2.2,-0.6 3.3,-0.6 1.6,0 3,0.4 4.4,1 l 9.9,5.3 c 1.5,0.8 2.1,2.6 1.4,4.1 l 0.6,0.4 10,-4.1 c 0.4,-0.1 0.7,-0.2 1.2,-0.2 1.3,0 2.3,0.7 2.8,2 0.5,1.5 -0.3,3.2 -1.7,3.9 l -12.2,6.2 c -0.5,0.2 -1,0.3 -1.6,0.3 -0.5,0 -0.9,-0.1 -1.5,-0.3 L 7.2,31.3 0.1,34.2 V 22.8 Z"
   id="path10"
   clip-path="none" />
		<path
   class="st1"
   d="m 39.8,28.5 c -0.5,-1.3 -1.6,-2.1 -2.9,-2.1 -0.4,0 -0.6,0.1 -1,0.2 l -0.2,0.1 -10,4.1 -0.6,-0.4 c 0.7,-1.5 0.1,-3.3 -1.4,-4.2 L 13.8,20.9 C 12.3,20.2 10.8,19.8 9.4,19.8 8.2,19.8 7.1,20 6,20.4 l -6,2.2 v 11.7 l 7.2,-3 15.6,7.3 c 0.6,0.2 1,0.3 1.5,0.3 0.5,0 1.1,-0.1 1.6,-0.3 l 12.2,-6.2 c 1.5,-0.7 2.3,-2.5 1.7,-3.9 z m -2.2,2.9 -12.2,6.2 c -0.3,0.1 -0.7,0.2 -1.1,0.2 -0.4,0 -0.6,-0.1 -1.1,-0.2 l -16,-7.4 -6,2.5 v -9 l 5.2,-1.9 c 0.9,-0.4 1.9,-0.6 3,-0.6 1.3,0 2.6,0.3 3.9,1 l 9.9,5.2 c 1,0.5 1.4,1.7 0.9,2.6 l -0.3,0.6 C 23.6,30.8 23.4,31 23.1,31.1 22.7,31.2 22.3,31.2 22,31 l -6.4,-3.3 c -0.2,-0.1 -0.5,0 -0.7,0.2 -0.1,0.2 0,0.5 0.2,0.7 l 6.4,3.3 c 0.4,0.2 0.7,0.3 1.1,0.3 0.3,0 0.5,0 0.8,-0.1 0.4,-0.1 0.8,-0.4 1.1,-0.7 l 1.2,0.8 10.5,-4.3 h 0.1 c 0.3,-0.1 0.5,-0.1 0.7,-0.1 0.8,0 1.5,0.5 1.8,1.3 0.2,0.7 -0.3,1.8 -1.2,2.3 z"
   id="path12"
   clip-path="none" />
	</g>
</g>
</svg>
