<?xml version="1.0" encoding="UTF-8" standalone="no"?>
<svg
   width="43.811317"
   height="57.848801"
   viewBox="0 0 43.811317 57.848801"
   fill="none"
   version="1.1"
   id="svg16"
   xmlns="http://www.w3.org/2000/svg"
   xmlns:svg="http://www.w3.org/2000/svg">
  <defs
     id="defs20" />
  <path
     d="m 39.528218,22.4292 c -1.9678,0 -3.5709,1.6011 -3.5719,3.5699 v -1.0082 c 0,-1.9698 -1.6032,-3.5709 -3.572,-3.5719 -1.9678,0 -3.5709,1.6011 -3.5719,3.5719 v 4.2852 -5.7135 c 0,-1.9699 -1.6032,-3.571 -3.572,-3.572 -1.9678,0 -3.5699,1.6001 -3.5719,3.57 v -9.9987 c 0,-1.9698 -1.6032,-3.5709 -3.572,-3.57191 -1.9678,0 -3.5709,1.60111 -3.5719,3.57191 l 10e-4,29.7726 -7.3166,-4.3972 c -2.0295,-1.2193 -4.66195,-0.5627 -5.88122,1.4647 -1.21927002,2.0295 -0.56266002,4.6619 1.46472,5.8812 l 15.2293,9.1541 c 1.4233,1.0536 3.1679,1.6971 5.075,1.6971 h 11.4291 c 4.7336,0 8.5712,-3.8376 8.5712,-8.5712 V 26.0021 c 0.002,-1.9718 -1.6011,-3.5729 -3.5689,-3.5729 z"
     fill="#e4e4e4"
     id="path2"
     clip-path="none" />
  <path
     d="m 41.092918,55.1284 c -1.7536,1.7537 -4.0861,2.7184 -6.566,2.7194 l -11.428,10e-4 c -1.9739,0 -3.876,-0.6354 -5.4994,-1.8365 L 2.425848,46.8956 c -1.14553,-0.6869 -1.95366002,-1.7799 -2.27590002,-3.0759 -0.32225,-1.2961 -0.12122,-2.6406 0.56569,-3.7862 0.21112,-0.3505 0.46366002,-0.6737 0.75257002,-0.9626 1.62431,-1.6244 4.13761,-1.9315 6.11051,-0.7466 l 6.2337,3.7468 V 13.5622 c -0.002,-2.2871 1.9981,-4.28718 4.2851,-4.28516 1.1425,-0.00101 2.2194,0.44548 3.0295,1.25566 0.8102,0.8101 1.2567,1.887 1.2557,3.0295 l 10e-4,6.8075 c 0.7879,-0.7071 1.794,-1.093 2.8567,-1.093 1.1425,-0.001 2.2193,0.4455 3.0295,1.2556 0.4425,0.4425 0.7738,0.9617 0.9859,1.5294 0.8324,-0.8748 1.9385,-1.3567 3.1265,-1.3567 1.7253,0 3.2184,1.0264 3.8962,2.5002 0.8162,-0.9354 1.9971,-1.49 3.2477,-1.49 1.1415,0 2.2183,0.4445 3.0284,1.2546 0.8102,0.8102 1.2557,1.888 1.2567,3.0305 v 22.5631 c 0,2.4789 -0.9647,4.8114 -2.7184,6.565 z M 2.477368,40.08 c -0.20507,0.2051 -0.38589,0.4364 -0.5364,0.6879 -0.49195,0.8173 -0.63641,1.7779 -0.40407,2.7053 0.23032,0.9253 0.80813,1.7051 1.62632,2.1961 l 15.2293,9.1541 c 1.4334,1.0556 3.0416,1.595 4.7064,1.595 l 11.428,-10e-4 c 2.0991,0 4.0719,-0.8172 5.5559,-2.3011 1.4839,-1.484 2.3011,-3.4568 2.3011,-5.5559 V 26.0013 c 0,-0.7616 -0.298,-1.4799 -0.8384,-2.0203 -0.5394,-0.5394 -1.2566,-0.8364 -2.0183,-0.8364 -1.5213,0 -2.8578,1.3304 -2.8578,2.8557 0,0.394 -0.3202,0.7142 -0.7142,0.7142 -0.3939,0 -0.7141,-0.3202 -0.7141,-0.7142 v -1.0081 c 0,-1.5759 -1.2819,-2.8578 -2.8578,-2.8578 -1.5233,0 -2.8568,1.3334 -2.8568,2.8568 v 4.2851 c 0,0.394 -0.3202,0.7142 -0.7141,0.7142 -0.198,0 -0.3758,-0.0808 -0.5051,-0.2101 -0.1293,-0.1293 -0.2091,-0.3081 -0.2101,-0.5051 v -5.7135 c 0,-0.7617 -0.297,-1.4789 -0.8375,-2.0193 -0.5404,-0.5405 -1.2576,-0.8375 -2.0193,-0.8375 -1.5193,0 -2.8517,1.3284 -2.8567,2.8467 v 0.0081 c 0,0.3939 -0.3203,0.7142 -0.7142,0.7142 -0.394,0 -0.7142,-0.3203 -0.7142,-0.7142 l -10e-4,-9.9976 c 0,-0.7617 -0.297,-1.4789 -0.8374,-2.0194 -0.5405,-0.5404 -1.2577,-0.8374 -2.0194,-0.8374 -1.5233,0 -2.8567,1.3334 -2.8567,2.8568 v 29.7716 c 10e-4,0.2576 -0.1384,0.498 -0.3627,0.6212 -0.2242,0.1273 -0.499,0.1233 -0.7192,-0.0081 l -7.3166,-4.3972 c -1.4102,-0.8465 -3.2053,-0.6294 -4.36495,0.5303 z"
     fill="#3200e6"
     id="path4"
     clip-path="none" />
  <path
     d="m 22.164618,30.0849 c -0.1293,0.1293 -0.3081,0.2091 -0.5051,0.2101 -0.394,0 -0.7142,-0.3202 -0.7142,-0.7142 V 23.437 c 0,-0.394 0.3202,-0.7142 0.7142,-0.7142 0.3939,0 0.7142,0.3202 0.7142,0.7142 v 6.1438 c 0,0.196 -0.0798,0.3748 -0.2091,0.5041 z"
     fill="#3200e6"
     id="path6"
     clip-path="none" />
  <path
     d="m 36.465318,29.8326 c -0.1293,0.11 -0.3081,0.1778 -0.505,0.1787 -0.394,0 -0.7142,-0.2724 -0.7142,-0.6074 v -5.2255 c 0,-0.3351 0.3202,-0.6074 0.7142,-0.6074 0.3939,0 0.7142,0.2723 0.7142,0.6074 v 5.2255 c 0,0.1666 -0.0799,0.3187 -0.2092,0.4287 z"
     fill="#3200e6"
     id="path8"
     clip-path="none" />
  <path
     d="m 22.531118,8.90537 c -0.2469,0 -0.4938,-0.09452 -0.6819,-0.2826 -0.3771,-0.37713 -0.3771,-0.9867 0,-1.36383 l 4.1909,-4.19082 c 0.3771,-0.37712 0.9867,-0.37712 1.3638,0 0.3771,0.37713 0.3771,0.9867 0,1.36383 l -4.1908,4.19082 c -0.1881,0.18904 -0.435,0.2826 -0.682,0.2826 z"
     fill="#3200e6"
     id="path10"
     clip-path="none" />
  <path
     d="m 13.068418,8.90564 c -0.2293,0 -0.4587,-0.0878 -0.6334,-0.26252 l -3.893,-3.89205 c -0.3503,-0.35033 -0.3503,-0.91657 0,-1.26689 0.3503,-0.35032 0.9166,-0.35032 1.2669,0 l 3.893,3.89295 c 0.3503,0.35032 0.3503,0.91657 0,1.26689 -0.1756,0.17471 -0.4041,0.26162 -0.6335,0.26162 z"
     fill="#3200e6"
     id="path12"
     clip-path="none" />
  <path
     d="m 17.766018,6.44325 c -0.5219,0 -0.9438,-0.42187 -0.9438,-0.94379 V 0.94379 c 0,-0.521916 0.4219,-0.94379 0.9438,-0.94379 0.522,0 0.9438,0.421874 0.9438,0.94379 v 4.55567 c 0,0.52192 -0.4218,0.94379 -0.9438,0.94379 z"
     fill="#3200e6"
     id="path14"
     clip-path="none" />
</svg>
