<?xml version="1.0" encoding="UTF-8" standalone="no"?>
<svg
   width="40"
   height="37.999981"
   viewBox="0 0 40 37.999981"
   fill="none"
   version="1.1"
   id="svg26"
   xmlns="http://www.w3.org/2000/svg"
   xmlns:svg="http://www.w3.org/2000/svg">
  <defs
     id="defs30" />
  <path
     d="m 31.9998,4.46875 c -0.5951,0 -1.1843,0.1172 -1.734,0.3449 -0.5497,0.22771 -1.0492,0.56146 -1.47,0.9822 -0.4207,0.42074 -0.7544,0.92024 -0.9821,1.46996 -0.2278,0.54973 -0.3449,1.13897 -0.3449,1.73397 0,0.595 0.1171,1.1842 0.3449,1.7339 0.2277,0.5497 0.5614,1.0492 0.9821,1.47 0.4208,0.4207 0.9203,0.7545 1.47,0.9822 0.5497,0.2277 1.1389,0.3449 1.734,0.3449 0.595,0 1.1842,-0.1172 1.7339,-0.3449 0.5497,-0.2277 1.0492,-0.5615 1.4699,-0.9822 0.4208,-0.4208 0.7545,-0.9203 0.9823,-1.47 0.2277,-0.5497 0.3448,-1.1389 0.3448,-1.7339 0,-0.595 -0.1171,-1.18424 -0.3448,-1.73397 C 35.9581,6.71609 35.6244,6.21659 35.2036,5.79585 34.7829,5.37511 34.2834,5.04136 33.7337,4.81365 33.184,4.58595 32.5948,4.46875 31.9998,4.46875 Z"
     fill="#3200e6"
     id="path2"
     clip-path="none" />
  <path
     d="m 32,4.938 c 2.24,0 4.062,1.822 4.062,4.06298 0,2.241 -1.822,4.062 -4.062,4.062 -2.24,0 -4.063,-1.823 -4.063,-4.063 C 27.937,6.76 29.76,4.938 32,4.938 Z M 32,4 c -2.761,0 -5,2.239 -5,4.99998 0,2.761 2.239,5 5,5 2.761,0 5,-2.239 5,-5 C 37,6.239 34.761,4 32,4 Z"
     fill="#3200e6"
     id="path4"
     clip-path="none" />
  <path
     d="m 7.99975,4.46875 c -0.59502,0 -1.18421,0.1172 -1.73394,0.3449 -0.54972,0.22771 -1.04922,0.56146 -1.46996,0.9822 -0.42074,0.42074 -0.75449,0.92024 -0.9822,1.46996 -0.2277,0.54973 -0.3449,1.13897 -0.3449,1.73397 0,0.595 0.1172,1.1842 0.3449,1.7339 0.22771,0.5497 0.56146,1.0492 0.9822,1.47 0.42074,0.4207 0.92024,0.7545 1.46996,0.9822 0.54973,0.2277 1.13892,0.3449 1.73394,0.3449 0.59502,0 1.18421,-0.1172 1.73394,-0.3449 0.54971,-0.2277 1.04921,-0.5615 1.47001,-0.9822 0.4207,-0.4208 0.7544,-0.9203 0.9821,-1.47 0.2278,-0.5497 0.345,-1.1389 0.345,-1.7339 0,-0.595 -0.1172,-1.18424 -0.345,-1.73397 C 11.9581,6.71609 11.6244,6.21659 11.2037,5.79585 10.7829,5.37511 10.2834,5.04136 9.73369,4.81365 9.18396,4.58595 8.59477,4.46875 7.99975,4.46875 Z"
     fill="#3200e6"
     id="path6"
     clip-path="none" />
  <path
     d="m 8,4.938 c 2.24,0 4.062,1.822 4.062,4.06298 0,2.241 -1.822,4.062 -4.062,4.062 -2.24,0 -4.063,-1.823 -4.063,-4.063 C 3.937,6.76 5.76,4.938 8,4.938 Z M 8,4 C 5.239,4 3,6.239 3,8.99998 c 0,2.761 2.239,5 5,5 2.761,0 5,-2.239 5,-5 C 13,6.239 10.761,4 8,4 Z"
     fill="#3200e6"
     id="path8"
     clip-path="none" />
  <path
     d="m 19.9998,0.46875 c -1.2017,0 -2.3542,0.47737 -3.204,1.3271 -0.8497,0.84973 -1.327,2.00221 -1.327,3.2039 0,1.2017 0.4773,2.35418 1.327,3.20393 0.8498,0.8497 2.0023,1.3271 3.204,1.3271 1.2016,0 2.3541,-0.4774 3.2039,-1.3271 0.8497,-0.84975 1.3271,-2.00223 1.3271,-3.20393 0,-1.20169 -0.4774,-2.35417 -1.3271,-3.2039 -0.8498,-0.84973 -2.0023,-1.3271 -3.2039,-1.3271 z"
     fill="#3200e6"
     id="path10"
     clip-path="none" />
  <path
     d="m 20,0.938 c 2.24,0 4.062,1.822 4.062,4.063 C 24.062,7.242 22.24,9.06298 20,9.06298 17.76,9.06298 15.937,7.24 15.937,5 15.937,2.76 17.76,0.938 20,0.938 Z M 20,0 c -2.761,0 -5,2.239 -5,5 0,2.761 2.239,4.99998 5,4.99998 C 22.761,9.99998 25,7.761 25,5 25,2.239 22.761,0 20,0 Z"
     fill="#3200e6"
     id="path12"
     clip-path="none" />
  <path
     d="m 20,37.49998 c -10.512,0 -17.998,-3.136 -19.5,-3.818 v -9.682 c 0,-4.136 3.364,-7.5 7.5,-7.5 1.495,0 2.939,0.439 4.179,1.271 l 0.536,0.361 0.214,-0.61 c 1.052,-3.004 3.893,-5.022 7.071,-5.022 3.178,0 6.019,2.018 7.071,5.022 l 0.214,0.61 0.536,-0.361 c 1.24,-0.832 2.684,-1.271 4.179,-1.271 4.136,0 7.5,3.364 7.5,7.5 v 9.682 c -1.502,0.682 -8.988,3.818 -19.5,3.818 z"
     fill="#ffffff"
     id="path14"
     clip-path="none" />
  <path
     d="m 20,12.99998 c 2.965,0 5.617,1.884 6.6,4.687 l 0.428,1.221 1.074,-0.722 c 1.154,-0.776 2.502,-1.186 3.898,-1.186 3.86,0 7,3.14 7,7 v 9.357 c -1.985,0.863 -9.149,3.643 -19,3.643 -9.851,0 -17.015,-2.78 -19,-3.643 v -9.357 c 0,-3.86 3.14,-7 7,-7 1.396,0 2.744,0.41 3.899,1.186 l 1.074,0.722 0.428,-1.221 c 0.982,-2.803 3.634,-4.687 6.599,-4.687 z m 0,-1 c -3.49,0 -6.451,2.239 -7.543,5.356 -1.274,-0.856 -2.807,-1.356 -4.457,-1.356 -4.418,0 -8,3.582 -8,8 0,0 0,9.545 0,10 0,0 7.996,4 20,4 12.004,0 20,-4 20,-4 0,-0.455 0,-10 0,-10 0,-4.418 -3.582,-8 -8,-8 -1.65,0 -3.183,0.5 -4.457,1.356 -1.092,-3.117 -4.053,-5.356 -7.543,-5.356 z"
     fill="#3200e6"
     id="path16"
     clip-path="none" />
  <path
     d="m 19.9998,18.46928 c -1.2017,0 -2.3542,0.4773 -3.204,1.3271 -0.8497,0.8497 -1.327,2.0022 -1.327,3.2039 0,1.2017 0.4773,2.3541 1.327,3.2039 0.8498,0.8497 2.0023,1.3271 3.204,1.3271 1.2016,0 2.3541,-0.4774 3.2039,-1.3271 0.8497,-0.8498 1.3271,-2.0022 1.3271,-3.2039 0,-1.2017 -0.4774,-2.3542 -1.3271,-3.2039 -0.8498,-0.8498 -2.0023,-1.3271 -3.2039,-1.3271 z"
     fill="#e4e4e4"
     id="path18"
     clip-path="none" />
  <path
     d="m 20,18.93798 c 2.24,0 4.062,1.822 4.062,4.063 0,2.241 -1.822,4.062 -4.062,4.062 -2.24,0 -4.063,-1.823 -4.063,-4.063 0,-2.24 1.823,-4.062 4.063,-4.062 z m 0,-0.938 c -2.761,0 -5,2.239 -5,5 0,2.761 2.239,5 5,5 2.761,0 5,-2.239 5,-5 0,-2.761 -2.239,-5 -5,-5 z"
     fill="#3200e6"
     id="path20"
     clip-path="none" />
  <path
     d="m 20.0002,37.46978 c -2.468,0 -4.964,-0.196 -7.427,-0.583 0.486,-4.162 3.67,-7.356 7.427,-7.356 3.757,0 6.94,3.194 7.427,7.356 -2.463,0.386 -4.959,0.583 -7.427,0.583 z"
     fill="#3200e6"
     id="path22"
     clip-path="none" />
  <path
     d="m 20,30.06098 c 3.335,0 6.184,2.734 6.826,6.38 -2.267,0.331 -4.558,0.498 -6.826,0.498 -2.268,0 -4.559,-0.168 -6.826,-0.498 0.642,-3.646 3.491,-6.38 6.826,-6.38 z m 0,-1.061 c -4.233,0 -7.693,3.674 -8,8.33 2.393,0.402 5.075,0.67 8,0.67 2.925,0 5.607,-0.268 8,-0.67 -0.307,-4.656 -3.767,-8.33 -8,-8.33 z"
     fill="#3200e6"
     id="path24"
     clip-path="none" />
</svg>
