<svg width="27" height="19" viewBox="0 0 27 19" fill="none" xmlns="http://www.w3.org/2000/svg">
<g clip-path="url(#clip0_1769_33956)">
<path d="M25.5548 3.7676C25.4096 3.22764 25.1245 2.73556 24.7283 2.34106C24.332 1.94657 23.8387 1.66361 23.2981 1.5208C21.3185 0.986321 13.4003 0.986328 13.4003 0.986328C13.4003 0.986328 5.48218 0.986321 3.45313 1.5208C2.91392 1.66421 2.42209 1.94753 2.02755 2.34208C1.63301 2.73662 1.34974 3.22838 1.20632 3.7676C0.493726 7.821 0.493726 11.9676 1.20632 16.021C1.34974 16.5603 1.63301 17.052 2.02755 17.4466C2.42209 17.8411 2.91392 18.1244 3.45313 18.2678C5.43269 18.8023 13.4003 18.8023 13.4003 18.8023C13.4003 18.8023 21.3185 18.8023 23.2981 18.2678C23.8387 18.125 24.332 17.8421 24.7283 17.4476C25.1245 17.0531 25.4096 16.561 25.5548 16.021C26.2674 11.9676 26.2674 7.821 25.5548 3.7676ZM10.817 13.7148V6.07378L17.4288 9.89432L10.817 13.7148Z" fill="white"/>
</g>
<defs>
<clipPath id="clip0_1769_33956">
<rect width="25.4472" height="17.816" fill="white" transform="translate(0.632812 0.986328)"/>
</clipPath>
</defs>
</svg>
