<svg width="21" height="20" viewBox="0 0 21 20" fill="none" xmlns="http://www.w3.org/2000/svg">
<g clip-path="url(#clip0_1769_33950)">
<path d="M10.7941 1.77996C13.4368 1.77996 13.7634 1.77996 14.7532 1.83935C15.3813 1.8488 16.0034 1.96252 16.5942 2.17587C17.0219 2.33997 17.4098 2.59299 17.7325 2.9182C18.0578 3.23878 18.3079 3.62754 18.4649 4.05645C18.6851 4.6457 18.8023 5.26845 18.8113 5.89744C18.8113 6.88721 18.8707 7.25343 18.8707 9.85654C18.8707 12.4597 18.8707 12.8259 18.8113 13.8156C18.8023 14.4446 18.6851 15.0674 18.4649 15.6566C18.3079 16.0855 18.0578 16.4743 17.7325 16.7949C17.4098 17.1201 17.0219 17.3731 16.5942 17.5372C16.0034 17.7506 15.3813 17.8643 14.7532 17.8737C13.7041 17.9232 13.3972 17.9331 10.7941 17.9331C8.191 17.9331 7.82478 17.9331 6.835 17.8737C6.20672 17.8665 5.58423 17.7527 4.99403 17.5372C4.56524 17.3753 4.1768 17.122 3.85577 16.7949C3.52739 16.4749 3.27388 16.0862 3.11343 15.6566C2.89791 15.0664 2.78415 14.4439 2.77694 13.8156C2.72745 12.7764 2.7175 12.4597 2.7175 9.85654C2.7175 7.25343 2.71756 6.88721 2.77694 5.89744C2.78415 5.26915 2.89791 4.64665 3.11343 4.05645C3.28311 3.64374 3.53968 3.2724 3.86567 2.96769C4.18671 2.64056 4.57514 2.38725 5.00394 2.22536C5.59414 2.00983 6.21663 1.89604 6.84491 1.88884C7.83469 1.83935 8.2009 1.82945 10.804 1.82945L10.7941 1.77996ZM10.804 0.0478516C8.11182 0.0478516 7.77531 0.0478491 6.72614 0.107236C5.90481 0.125406 5.09208 0.279253 4.32093 0.56254C3.66428 0.820832 3.06796 1.21163 2.56901 1.71058C2.07006 2.20953 1.67925 2.80593 1.42095 3.46258C1.13871 4.23401 0.984823 5.04651 0.965574 5.86773C0.965574 6.91689 0.90625 7.25341 0.90625 9.9456C0.90625 12.6378 0.906187 12.9743 0.965574 14.0235C0.984823 14.8447 1.13871 15.6572 1.42095 16.4287C1.67925 17.0853 2.07006 17.6817 2.56901 18.1806C3.06796 18.6796 3.66428 19.0704 4.32093 19.3287C5.09208 19.612 5.90481 19.7658 6.72614 19.784C7.77531 19.8335 8.11182 19.8434 10.804 19.8434C13.4962 19.8434 13.7733 19.8434 14.8819 19.784C15.7031 19.7647 16.5157 19.6109 17.2871 19.3287C17.9472 19.077 18.5447 18.6853 19.0389 18.1806C19.5462 17.6904 19.9355 17.0914 20.1772 16.4287C20.468 15.6593 20.6253 14.8459 20.6423 14.0235C20.6423 12.9743 20.7018 12.6378 20.7018 9.9456C20.7018 7.25341 20.7017 6.91689 20.6423 5.86773C20.6253 5.04538 20.468 4.23197 20.1772 3.46258C19.9355 2.79986 19.5462 2.20078 19.0389 1.71067C18.5447 1.2059 17.9472 0.814208 17.2871 0.56254C16.5157 0.280298 15.7031 0.126485 14.8819 0.107236C13.8228 0.0577469 13.4863 0.0478516 10.804 0.0478516Z" fill="white"/>
<path d="M10.7927 4.8086C9.78607 4.80664 8.80144 5.10335 7.96352 5.66117C7.12559 6.219 6.47203 7.01286 6.08545 7.9423C5.69888 8.87173 5.59667 9.89496 5.79185 10.8825C5.98704 11.87 6.47082 12.7774 7.18192 13.4899C7.89301 14.2024 8.79947 14.6879 9.7866 14.885C10.7737 15.0821 11.7972 14.982 12.7274 14.5972C13.6576 14.2124 14.4527 13.5604 15.0122 12.7235C15.5716 11.8867 15.8702 10.9027 15.8703 9.89606C15.8703 8.54849 15.3356 7.25598 14.3837 6.30218C13.4317 5.34838 12.1403 4.81123 10.7927 4.8086ZM10.7927 13.192C10.1408 13.192 9.50353 12.9987 8.96151 12.6365C8.41949 12.2744 7.99707 11.7596 7.74761 11.1574C7.49814 10.5551 7.43291 9.89239 7.56009 9.25304C7.68726 8.61369 8.0012 8.02642 8.46215 7.56547C8.9231 7.10452 9.51032 6.7906 10.1497 6.66342C10.789 6.53625 11.4517 6.60152 12.054 6.85098C12.6562 7.10045 13.171 7.5229 13.5332 8.06492C13.8953 8.60693 14.0886 9.24418 14.0886 9.89606C14.086 10.7694 13.738 11.6062 13.1205 12.2238C12.5029 12.8413 11.666 13.1894 10.7927 13.192Z" fill="white"/>
<path d="M16.0979 5.80222C16.7539 5.80222 17.2856 5.27046 17.2856 4.61449C17.2856 3.95852 16.7539 3.42676 16.0979 3.42676C15.4419 3.42676 14.9102 3.95852 14.9102 4.61449C14.9102 5.27046 15.4419 5.80222 16.0979 5.80222Z" fill="white"/>
</g>
<defs>
<clipPath id="clip0_1769_33950">
<rect width="19.7955" height="19.7955" fill="white" transform="translate(0.914062)"/>
</clipPath>
</defs>
</svg>
