<svg width="40" height="40" viewBox="0 0 40 40" fill="none" xmlns="http://www.w3.org/2000/svg">
<g clip-path="url(#clip0_4653_28517)">
<path d="M34.0833 34.0835H28.1543V24.8026C28.1543 22.5865 28.1173 19.7378 25.0679 19.7378C22.0185 19.7378 21.5062 22.1513 21.5062 24.639V34.0835H15.5803V14.9939H21.2716V17.6051H21.3488C21.9182 16.6312 22.741 15.8299 23.7296 15.2864C24.7182 14.743 25.8356 14.4776 26.963 14.5186C32.9722 14.5186 34.0618 18.4693 34.0618 23.6081L34.0833 34.0835ZM8.89817 12.3859C8.21727 12.3865 7.5515 12.1851 6.9851 11.8072C6.41869 11.4293 5.97713 10.8919 5.71628 10.2629C5.45543 9.63398 5.387 8.94179 5.51969 8.27394C5.65237 7.6061 5.98019 6.99262 6.46166 6.51115C6.94313 6.02968 7.5566 5.70186 8.22445 5.56917C8.89229 5.43648 9.58449 5.5049 10.2134 5.76575C10.8424 6.0266 11.3798 6.46816 11.7577 7.03456C12.1356 7.60096 12.3371 8.26675 12.3364 8.94765C12.3324 9.85828 11.9688 10.7305 11.3249 11.3744C10.681 12.0183 9.80881 12.3819 8.89817 12.3859ZM11.8611 34.0835H5.92904V14.9939H11.8611V34.0835ZM34.0741 0.000343785H2.95063C2.17827 -0.00464367 1.43515 0.295316 0.882674 0.835075C0.330201 1.37483 0.0129923 2.11079 0 2.88306V37.1267C0.0121877 37.8995 0.329021 38.6362 0.881581 39.1766C1.43414 39.7171 2.17775 40.0174 2.95063 40.0125H37.037C37.8116 40.0191 38.5574 39.7196 39.1123 39.1792C39.6672 38.6388 39.9862 37.9011 40 37.1267V2.88282C39.9854 2.10892 39.666 1.37204 39.1112 0.832278C38.5564 0.292512 37.811 -0.00653404 37.037 0.000108334" fill="white"/>
</g>
<defs>
<clipPath id="clip0_4653_28517">
<rect width="40" height="40" fill="white"/>
</clipPath>
</defs>
</svg>
